# xmcd
#
# Track frame offsets:
#  150
#  17221
#  30010
#  42684
#  54416
#  69988
#  85220
#  103839
#  114049
#  129061
#  148200
#  162105
#  173601
#  188996
#  200436
#  221525
#  232759
#  252169
#
# Disc length: 3597 seconds
#
# Revision: 0
# Processed by: cddbd v1.5.1PL2 Copyright (c) Steve Scherf et al.
# Submitted via: Collectorz.com Music Collector 6.9
#
DISCID=e60e0b12
DTITLE=Various Artist - Country Hits
DYEAR=1900
DGENRE=Country
TTITLE0=Black Hills Country Band - It´s no use
TTITLE1=Derringer - Teach your children
TTITLE2=Mark Lavender - My guitar and my bottle of whiskey
TTITLE3=Dixie Aces - Mystery train
TTITLE4=Tina Wagenvoort - Turn around
TTITLE5=Phoenix - Harvest home
TTITLE6=Ninon - Medley - One love, Bing bang boom, Put yourself in my place
TTITLE7=Andre Houtappels - lloyds place
TTITLE8=Busted - To stay and not to run
TTITLE9=Black Hills Country Band - I wish I knew
TTITLE10=Derringer - The love in my heart
TTITLE11=Mark Lavender - Memories of yesterday
TTITLE12=Dixie Aces - Nobody wins
TTITLE13=Ina Wagenvoort - Why don´t you leave me alone
TTITLE14=Phoenix - Little things
TTITLE15=Ninon - That´s what I like about you
TTITLE16=Andre Houtappels - The rose
TTITLE17=Busted - You want my loving
EXTD=
EXTT0=
EXTT1=
EXTT2=
EXTT3=
EXTT4=
EXTT5=
EXTT6=
EXTT7=
EXTT8=
EXTT9=
EXTT10=
EXTT11=
EXTT12=
EXTT13=
EXTT14=
EXTT15=
EXTT16=
EXTT17=
PLAYORDER=
